<svg width="1845" height="1845" viewBox="0 0 1845 1845" fill="none" xmlns="http://www.w3.org/2000/svg">
<g opacity="0.05">
<path opacity="0.6" fill-rule="evenodd" clip-rule="evenodd" d="M922.729 1588.87C1295.91 1588.87 1598.44 1286.01 1598.44 912.398C1598.44 538.786 1295.91 235.927 922.729 235.927C549.552 235.927 247.019 538.786 247.019 912.398C247.019 1286.01 549.552 1588.87 922.729 1588.87ZM922.729 1595.87C1299.78 1595.87 1605.44 1289.87 1605.44 912.398C1605.44 534.928 1299.78 228.927 922.729 228.927C545.679 228.927 240.019 534.928 240.019 912.398C240.019 1289.87 545.679 1595.87 922.729 1595.87Z" fill="#76E6FF"/>
<g filter="url(#filter0_d_326_185)">
<path d="M841.873 94.8324C659.486 112.479 494.34 189.056 365.713 305.285V228.83C512.929 110.393 698.65 37.8689 901.132 32.9993L841.873 94.8324Z" fill="#76E6FF"/>
<path d="M959.986 91.7423C1142.42 99.7432 1309.58 166.533 1443 273.633H1531.68C1392.93 143.374 1212.37 57.1241 1012.29 37.1691L959.986 91.7423Z" fill="#76E6FF"/>
<path d="M1609.64 356.768H1532.34C1650.85 484.407 1729.74 649.336 1749.47 832.001L1812 891.926C1805.2 688.955 1730.39 503.216 1609.64 356.768Z" fill="#76E6FF"/>
<path d="M1808.8 1004.01L1753.81 951.313C1747.44 1136.85 1680.27 1306.95 1571.6 1442.32V1531C1703.52 1390.49 1790.3 1207.12 1808.8 1004.01Z" fill="#76E6FF"/>
<path d="M1488.47 1608.95V1531.65C1358.77 1652.06 1190.56 1731.58 1004.37 1749.68L945.088 1811.54C1151.26 1806.5 1340.04 1731.32 1488.47 1608.95Z" fill="#76E6FF"/>
<path d="M833.894 1807.41L886.212 1752.82C698.977 1744.68 527.808 1674.62 392.678 1562.6H305.447C445.388 1697.57 629.459 1787.1 833.894 1807.41Z" fill="#76E6FF"/>
<path d="M229.458 1479.47H305.916C187.829 1348.8 110.671 1180.44 94.655 994.598L33.459 935.955C36.5593 1141.58 109.434 1330.29 229.458 1479.47Z" fill="#76E6FF"/>
<path d="M38.5403 825.678L92.7319 877.609C102.48 693.487 172.139 525.253 282.575 392.042L282.575 304.815C149.267 443.023 60.2901 624.276 38.5403 825.678Z" fill="#76E6FF"/>
</g>
</g>
<defs>
<filter id="filter0_d_326_185" x="0.758984" y="0.299267" width="1843.94" height="1843.94" filterUnits="userSpaceOnUse" color-interpolation-filters="sRGB">
<feFlood flood-opacity="0" result="BackgroundImageFix"/>
<feColorMatrix in="SourceAlpha" type="matrix" values="0 0 0 0 0 0 0 0 0 0 0 0 0 0 0 0 0 0 127 0" result="hardAlpha"/>
<feOffset/>
<feGaussianBlur stdDeviation="16.35"/>
<feComposite in2="hardAlpha" operator="out"/>
<feColorMatrix type="matrix" values="0 0 0 0 0.4625 0 0 0 0 0.90325 0 0 0 0 1 0 0 0 1 0"/>
<feBlend mode="normal" in2="BackgroundImageFix" result="effect1_dropShadow_326_185"/>
<feBlend mode="normal" in="SourceGraphic" in2="effect1_dropShadow_326_185" result="shape"/>
</filter>
</defs>
</svg>
